<?xml version="1.0" encoding="utf-8"?>
<!-- Generator: Adobe Illustrator 24.2.1, SVG Export Plug-In . SVG Version: 6.00 Build 0)  -->
<svg version="1.1" id="Ebene_1" xmlns="http://www.w3.org/2000/svg" xmlns:xlink="http://www.w3.org/1999/xlink" x="0px" y="0px"
	 viewBox="0 0 57.71 57.71" style="enable-background:new 0 0 57.71 57.71;" xml:space="preserve">
<style type="text/css">
	.st0{fill-rule:evenodd;clip-rule:evenodd;}
	.st1{fill:#FFFFFF;}
</style>
<rect x="0.51" y="0.58" class="st0" width="56.69" height="56.69"/>
<g>
	<path class="st1" d="M20.09,38.56v12.78c0,0.74,0.6,1.35,1.35,1.35c0.74,0,1.35-0.61,1.35-1.35V38.56c0-0.75-0.6-1.35-1.35-1.35
		C20.69,37.22,20.09,37.82,20.09,38.56"/>
	<path class="st1" d="M45.51,38.69v12.78c0,0.74,0.6,1.35,1.35,1.35c0.74,0,1.35-0.61,1.35-1.35V38.69c0-0.75-0.6-1.35-1.35-1.35
		C46.11,37.34,45.51,37.94,45.51,38.69"/>
	<polyline class="st1" points="44.45,45.47 37.46,41.27 37.46,43.97 30.87,43.97 30.87,41.27 23.88,45.47 30.87,49.66 30.87,46.97 
		37.46,46.97 37.46,49.66 44.45,45.47 	"/>
	<g>
		<path class="st1" d="M39.53,19.17c0,0.66-0.1,1.24-0.29,1.75c-0.19,0.51-0.46,0.94-0.82,1.32c-0.35,0.37-0.77,0.71-1.27,1
			c-0.49,0.29-1.05,0.56-1.67,0.8v2.23h-3.44v-3.3c0.46-0.12,0.88-0.25,1.26-0.38c0.37-0.13,0.77-0.34,1.18-0.64
			c0.38-0.26,0.69-0.57,0.9-0.91c0.22-0.34,0.33-0.74,0.33-1.17c0-0.65-0.21-1.12-0.63-1.4c-0.42-0.28-1.01-0.42-1.77-0.42
			c-0.47,0-1,0.1-1.59,0.3c-0.59,0.2-1.13,0.46-1.62,0.78h-0.39v-2.98c0.42-0.18,1.06-0.36,1.93-0.55c0.87-0.19,1.75-0.29,2.64-0.29
			c1.61,0,2.89,0.36,3.83,1.07C39.06,17.1,39.53,18.03,39.53,19.17z M35.76,30.18h-3.95V27.6h3.95V30.18z"/>
	</g>
	<path class="st1" d="M8.42,39.79h12.78c0.74,0,1.35-0.6,1.35-1.35c0-0.74-0.61-1.35-1.35-1.35H8.42c-0.75,0-1.35,0.6-1.35,1.35
		C7.07,39.19,7.68,39.79,8.42,39.79"/>
	<path class="st1" d="M8.42,8.63h12.78c0.74,0,1.35-0.6,1.35-1.35c0-0.74-0.61-1.35-1.35-1.35H8.42c-0.75,0-1.35,0.61-1.35,1.35
		C7.07,8.03,7.68,8.63,8.42,8.63"/>
	<polyline class="st1" points="15.29,9.22 11.11,16.47 13.81,16.47 13.83,28.88 11.13,28.88 15.33,36 19.52,28.88 16.83,28.88 
		16.84,16.49 19.49,16.49 15.32,9.25 	"/>
</g>
</svg>
