<?xml version="1.0" encoding="utf-8"?>
<!-- Generator: Adobe Illustrator 24.2.1, SVG Export Plug-In . SVG Version: 6.00 Build 0)  -->
<svg version="1.1" id="Ebene_1" xmlns="http://www.w3.org/2000/svg" xmlns:xlink="http://www.w3.org/1999/xlink" x="0px" y="0px"
	 viewBox="0 0 57.71 57.71" style="enable-background:new 0 0 57.71 57.71;" xml:space="preserve">
<style type="text/css">
	.st0{clip-path:url(#XMLID_2_);}
	.st1{stroke:#FFFFFF;stroke-linecap:round;stroke-linejoin:round;stroke-miterlimit:3.8637;}
	.st2{stroke:#FFFFFF;stroke-linecap:round;stroke-linejoin:round;stroke-miterlimit:57;}
	.st3{stroke:#FFFFFF;stroke-linecap:round;stroke-linejoin:round;}
	.st4{stroke:#FFFFFF;stroke-width:1.2;stroke-linecap:round;stroke-linejoin:round;}
</style>
<g>
	<defs>
		<rect id="XMLID_00000042732745860142766540000008595142054153220263_" x="0.51" y="0.51" width="56.69" height="56.69"/>
	</defs>
	
		<use xlink:href="#XMLID_00000042732745860142766540000008595142054153220263_"  style="overflow:visible;fill-rule:evenodd;clip-rule:evenodd;"/>
	<clipPath id="XMLID_2_">
		<use xlink:href="#XMLID_00000042732745860142766540000008595142054153220263_"  style="overflow:visible;"/>
	</clipPath>
	<g class="st0">
		<path class="st1" d="M51.52-73.66c-1.35,1.25-3.61,1.85-5.4,1.43C55.45-37.14,39.9,7.83,29.61,31.84
			c-4.7,10.98-9.2,14.29-11.64,13.79c-2.21-0.45-4.49-4.45-4.49-10.36c0-1.54-1.25-2.79-2.79-2.79c-1.54,0-2.79,1.25-2.79,2.79
			c0,8.37,3.6,14.73,8.95,15.83c0.48,0.1,1.01,0.16,1.6,0.16c3.9,0,10.11-2.81,16.29-17.22C47.64,3.93,60.79-38.86,51.52-73.66z"/>
		<path class="st1" d="M49.25-107.38c-2.69-4.49-5.03-8.43-6.64-12.69c-0.68,1.7-3.06,2.71-5.02,2.47
			c1.78,4.55,4.26,8.72,6.87,13.09c6.95,11.61,15.6,26.06,15.6,56.86c0,28.23-13.85,70.33-17.32,76.4c-0.76,1.34-0.3,3.04,1.04,3.8
			c0.43,0.25,0.91,0.37,1.38,0.37c0.97,0,1.91-0.5,2.42-1.4c4.36-7.64,18.05-51.34,18.05-79.16
			C65.65-79.99,56.56-95.17,49.25-107.38z"/>
		<path class="st2" d="M42.82,29.62c0.78-2.72,5.02-1.41,4.36,1.24"/>
		<g>
			<g>
				<path class="st3" d="M6.4,34.52c0,0.9,0.84,1.69,2.1,2.11c0.62,0.21,1.35,0.33,2.12,0.33c0.77,0,1.49-0.12,2.11-0.32
					c1.26-0.42,2.11-1.21,2.11-2.11V32.3c0-1.35-1.89-2.44-4.22-2.44c-2.34,0-4.22,1.09-4.22,2.44V34.52L6.4,34.52z"/>
				<path class="st3" d="M6.4,34.52c0,0.9,0.84,1.69,2.1,2.11c0.62,0.21,1.35,0.33,2.12,0.33c0.77,0,1.49-0.12,2.11-0.32
					c1.26-0.42,2.11-1.21,2.11-2.11V32.3c0-1.35-1.89-2.44-4.22-2.44c-2.34,0-4.22,1.09-4.22,2.44V34.52L6.4,34.52z"/>
				<path class="st3" d="M6.4,34.52c0,0.9,0.84,1.69,2.1,2.11c0.62,0.21,1.35,0.33,2.12,0.33c0.77,0,1.49-0.12,2.11-0.32
					c1.26-0.42,2.11-1.21,2.11-2.11V32.3c0-1.35-1.89-2.44-4.22-2.44c-2.34,0-4.22,1.09-4.22,2.44V34.52L6.4,34.52z"/>
				<path class="st3" d="M8.51,36.63v-2.22 M12.73,36.63v-2.22 M10.62,34.11c-2.03,0-3.66-0.95-3.66-2.12
					c0-1.17,1.64-2.11,3.66-2.11c2.03,0,3.66,0.94,3.66,2.11C14.28,33.16,12.64,34.11,10.62,34.11L10.62,34.11z M14.84,32.3
					c-0.56,0.01-2.01,1.89-2.08,2.1 M12.76,34.4c-0.63-0.21-1.36-0.32-2.15-0.31c-0.75,0.01-1.46,0.13-2.06,0.34 M8.55,34.43
					c-0.09-0.26-1.58-2.14-2.15-2.13"/>
				<path class="st3" d="M8.21,30.5v-2.13c0-1.23,0.39-2.59,1.1-3.82c0.71-1.23,1.69-2.25,2.76-2.86l1.6-0.94
					c0-1.23,0.47-2.45,1.4-3.39c0.12-0.12,0.24-0.23,0.37-0.33c-0.04-0.05-0.08-0.1-0.11-0.16c-0.01-0.06-0.01-0.1-0.01-0.16V16.7
					l-0.01-0.74l0,0c0-0.06,0.01-0.09,0.02-0.15c0.19-0.29,0.38-0.55,0.58-0.76c0.05-0.06,0.12-0.12,0.18-0.17
					c0.03-0.02,0.06-0.04,0.08-0.07c0.04-0.03,0.08-0.06,0.13-0.09c0.04-0.03,0.09-0.06,0.13-0.08c0.03-0.02,0.07-0.04,0.1-0.05
					c0.06-0.03,0.12-0.06,0.18-0.09c0.01,0,0.02-0.01,0.04-0.01c0.16-0.07,0.33-0.13,0.52-0.18v-3.26
					c-0.05-0.04-0.11-0.08-0.16-0.12c-0.37-0.37-0.55-0.84-0.56-1.32l-3.84-0.57C12.5,9,12.25,8.9,12.07,8.72
					c-0.43-0.43-0.43-1.12,0-1.55c0.33-0.33,0.8-0.4,1.21-0.23l3.64,1.54c0.06-0.09,0.13-0.18,0.21-0.25c0.74-0.74,1.95-0.74,2.69,0
					c0.36,0.36,0.54,0.82,0.55,1.29l3.84,0.57c0.24,0.03,0.48,0.13,0.67,0.31c0.43,0.43,0.43,1.12,0,1.55
					c-0.33,0.33-0.81,0.4-1.21,0.23l-3.62-1.53c-0.07,0.1-0.14,0.19-0.22,0.28c-0.05,0.05-0.1,0.09-0.15,0.12v3.26
					c0.03,0.01,0.05,0.02,0.08,0.03c0.03,0.01,0.06,0.02,0.09,0.03c0.07,0.02,0.14,0.04,0.2,0.07c0.04,0.01,0.08,0.03,0.11,0.05
					c0.06,0.02,0.11,0.05,0.17,0.07c0.04,0.02,0.08,0.04,0.13,0.06c0.04,0.02,0.09,0.05,0.13,0.07c0.05,0.03,0.09,0.06,0.14,0.1
					c0.03,0.02,0.06,0.04,0.09,0.06c0.07,0.05,0.13,0.11,0.19,0.17c0.05,0.06,0.11,0.12,0.16,0.18c0.07-0.05,0.15-0.1,0.22-0.15
					c0.97-0.56,2.5,0.34,3.47,2.02c0.97,1.68,0.99,3.48,0.02,4.04c-0.54,0.23-1.03,0.56-1.47,1c-0.27,0.27-0.49,0.58-0.69,0.89
					c-0.22,0.42-0.5,0.81-0.85,1.16c-1.57,1.57-3.94,1.82-5.78,0.76l-1.61,0.94c-0.26,0.15-0.66,0.52-1,1.1
					c-0.34,0.58-0.46,1.11-0.46,1.41l0.01,2.13c0.4,0.3,0.64,0.67,0.64,1.08c0,0.97-1.36,1.76-3.05,1.76
					c-1.69,0-3.05-0.79-3.05-1.76C7.57,31.17,7.81,30.8,8.21,30.5L8.21,30.5z"/>
				<path class="st3" d="M17.32,8.65l-4.04-1.71c-0.4-0.17-0.88-0.1-1.21,0.23c-0.43,0.43-0.43,1.12,0,1.55
					C12.25,8.9,12.5,9,12.73,9.03l4.32,0.63"/>
				<path class="st3" d="M27.11,22.43c-1.6,0.92-4.18-0.57-5.78-3.33c-1.6-2.76-1.6-5.74,0-6.67c1.6-0.92,4.18,0.57,5.78,3.33
					C28.71,18.54,28.71,21.51,27.11,22.43L27.11,22.43z"/>
				<path class="st3" d="M22.71,22.99c-0.22,0.42-0.5,0.81-0.85,1.16c-1.87,1.87-4.91,1.87-6.79,0c-1.87-1.88-1.87-4.92,0-6.79
					c0.95-0.95,2.2-1.42,3.44-1.41c1.01,0.01,2-0.29,2.86-0.91c0.97-0.56,2.5,0.34,3.47,2.02c0.97,1.68,0.99,3.48,0.02,4.04
					c-0.54,0.23-1.03,0.56-1.47,1C23.12,22.38,22.9,22.68,22.71,22.99L22.71,22.99z"/>
				<path class="st3" d="M22.71,22.99c0.55-1.04,0.69-2.24,0.43-3.37"/>
				<path class="st3" d="M7.57,31.58c0-0.98,1.36-1.76,3.05-1.76c1.69,0,3.05,0.79,3.05,1.76c0,0.97-1.36,1.76-3.05,1.76
					C8.93,33.34,7.57,32.56,7.57,31.58L7.57,31.58z"/>
				<path class="st3" d="M16.23,24.83l-1.75,1.02c-0.26,0.15-0.66,0.52-1,1.1c-0.34,0.58-0.46,1.11-0.46,1.41l0.01,2.84
					c0,0.77-1.07,1.39-2.41,1.39c-1.33,0-2.41-0.62-2.41-1.39v-2.84c0-1.23,0.39-2.59,1.1-3.82c0.71-1.23,1.69-2.25,2.76-2.86
					l1.75-1.03c0.67-0.38,1.74,0.24,2.41,1.39"/>
				<path d="M18.52,17.34c0.43,0,0.85,0.19,1.24,0.29l0.02,0.73c-0.41,0.12-0.84,0.13-1.3,0.13c-0.45,0-0.89-0.02-1.29-0.13l0-0.72
					C17.6,17.53,18.05,17.34,18.52,17.34L18.52,17.34z"/>
				<path d="M17.92,14.19c0.08-0.01,0.15-0.02,0.23-0.02C18.07,14.17,17.99,14.18,17.92,14.19L17.92,14.19z"/>
				<path d="M15.33,15.81c0.19-0.29,0.38-0.55,0.58-0.76c0.39-0.44,1.13-0.77,2-0.86c-1.13,0.15-1.97,0.73-1.97,1.42
					c0,0.81,1.13,1.45,2.52,1.45c1.39,0,2.52-0.65,2.52-1.45c0-0.74-0.96-1.36-2.21-1.44c0.95,0.06,1.76,0.38,2.2,0.84
					c0.21,0.22,0.42,0.49,0.62,0.8c0.01,0.06,0.01,0.25,0.01,0.3c-0.75,0.4-0.57,0.2-1.31,1.35l-0.55,0.17
					c-0.39-0.1-0.81-0.29-1.24-0.29c-0.46,0-0.92,0.19-1.34,0.31l-0.55-0.18c-0.74-1.15-0.55-0.95-1.3-1.34l-0.02-0.17
					C15.31,15.9,15.32,15.87,15.33,15.81L15.33,15.81z"/>
				<path d="M21.62,16.11l0,0.59c0,0.06,0,0.11-0.01,0.17c-0.42,0.65-0.87,1.1-1.31,1.32l0-0.72
					C21.05,16.31,20.87,16.51,21.62,16.11L21.62,16.11z"/>
				<polygon points="20.31,17.46 20.31,18.18 19.77,18.37 19.75,17.64 20.31,17.46 				"/>
				<path d="M15.33,16.13c0.75,0.4,0.57,0.19,1.3,1.34l0,0.72c-0.43-0.21-0.89-0.67-1.31-1.31c-0.01-0.06-0.01-0.1-0.01-0.16
					l-0.01-0.75L15.33,16.13L15.33,16.13z"/>
				<polygon points="17.18,17.65 17.18,18.37 16.64,18.19 16.63,17.47 17.18,17.65 				"/>
				<path d="M18.47,14.15c-0.11,0-0.22,0.01-0.32,0.01C18.26,14.16,18.36,14.15,18.47,14.15L18.47,14.15z"/>
				<path d="M18.79,14.17c-0.1-0.01-0.21-0.01-0.31-0.01C18.58,14.15,18.68,14.16,18.79,14.17L18.79,14.17z"/>
				<path d="M20.99,15.61c0,0.81-1.13,1.45-2.52,1.45c-1.4,0-2.52-0.65-2.52-1.45c0-0.74,0.96-1.35,2.2-1.44
					c0.11-0.01,0.21-0.01,0.32-0.01c0.11,0,0.21,0.01,0.31,0.01C20.03,14.25,20.99,14.86,20.99,15.61L20.99,15.61z M18.47,14.42
					c-1.09,0-1.97,0.51-1.97,1.14c0,0.63,0.88,1.14,1.97,1.14c1.09,0,1.97-0.51,1.97-1.14C20.45,14.93,19.56,14.42,18.47,14.42
					L18.47,14.42z"/>
				<path d="M18.47,16.7c-1.09,0-1.97-0.51-1.97-1.14c0-0.63,0.88-1.14,1.97-1.14c1.09,0,1.97,0.51,1.97,1.14
					C20.45,16.19,19.56,16.7,18.47,16.7L18.47,16.7z"/>
				<path class="st3" d="M20.45,15.56c0,0.63-0.88,1.14-1.97,1.14c-1.09,0-1.97-0.51-1.97-1.14c0-0.63,0.88-1.14,1.97-1.14
					C19.56,14.42,20.45,14.93,20.45,15.56L20.45,15.56z M15.33,15.81c0.19-0.29,0.38-0.55,0.58-0.76c0.47-0.54,1.44-0.9,2.56-0.9
					c1.09,0,2.03,0.35,2.52,0.86c0.21,0.22,0.42,0.49,0.62,0.8c0.01,0.06,0.01,0.11,0.01,0.17v0.72c0,0.06,0,0.11-0.01,0.17
					c-0.42,0.65-0.87,1.1-1.31,1.32l-0.54,0.18c-0.41,0.12-0.84,0.13-1.3,0.13c-0.45,0-0.89-0.02-1.29-0.13l-0.54-0.18
					c-0.43-0.21-0.89-0.67-1.31-1.31c-0.01-0.06-0.01-0.1-0.01-0.16v-0.72C15.32,15.93,15.32,15.87,15.33,15.81L15.33,15.81z
					 M16.63,17.47l0,0.72 M17.18,17.65l0,0.72 M20.31,17.46l0,0.72 M19.75,17.64l0.02,0.73 M21.62,16.11
					c-0.75,0.4-0.57,0.2-1.31,1.35l-0.55,0.17c-0.39-0.1-0.81-0.29-1.24-0.29c-0.46,0-0.92,0.19-1.34,0.31l-0.55-0.18
					c-0.74-1.15-0.55-0.95-1.3-1.34 M15.95,15.61c0-0.8,1.13-1.46,2.52-1.46c1.39,0,2.52,0.65,2.52,1.46c0,0.81-1.13,1.45-2.52,1.45
					C17.08,17.06,15.95,16.41,15.95,15.61L15.95,15.61z"/>
				<path class="st3" d="M17.28,15.18c0,0.38,0.53,0.69,1.19,0.69c0.66,0,1.19-0.31,1.19-0.69v-4.93c0-0.38-0.53-0.68-1.19-0.68
					c-0.66,0-1.19,0.31-1.19,0.68V15.18L17.28,15.18z"/>
				<path class="st3" d="M19.66,10.26c0,0.38-0.53,0.69-1.19,0.69c-0.66,0-1.19-0.31-1.19-0.69"/>
				<path class="st3" d="M17.13,10.92c0.74,0.74,1.95,0.74,2.69,0c0.74-0.75,0.74-1.95,0-2.69c-0.74-0.74-1.95-0.74-2.69,0
					C16.38,8.97,16.38,10.17,17.13,10.92L17.13,10.92z"/>
				<path class="st3" d="M19.62,10.46l4.05,1.71c0.4,0.17,0.88,0.1,1.21-0.23c0.43-0.43,0.43-1.12,0-1.55
					c-0.18-0.18-0.43-0.29-0.67-0.31l-4.32-0.63"/>
			</g>
		</g>
		<g>
			<g>
				<path class="st4" d="M44.22,40.64c-1.36,0-2.46-1.1-2.46-2.46c0-1.36,2.46-6.27,2.46-6.27s2.46,4.91,2.46,6.27
					C46.68,39.53,45.57,40.64,44.22,40.64L44.22,40.64z"/>
				<path class="st4" d="M44.22,52.43c-1.36,0-2.46-1.11-2.46-2.46c0-1.36,2.46-6.27,2.46-6.27s2.46,4.91,2.46,6.27
					C46.68,51.32,45.57,52.43,44.22,52.43L44.22,52.43z"/>
			</g>
		</g>
	</g>
</g>
</svg>
