<?xml version="1.0" encoding="utf-8"?>
<!-- Generator: Adobe Illustrator 26.0.1, SVG Export Plug-In . SVG Version: 6.00 Build 0)  -->
<svg version="1.1" id="Layer_1" xmlns="http://www.w3.org/2000/svg" xmlns:xlink="http://www.w3.org/1999/xlink" x="0px" y="0px"
	 viewBox="0 0 56.69 56.69" style="enable-background:new 0 0 56.69 56.69;" xml:space="preserve">
<style type="text/css">
	.st0{clip-path:url(#XMLID_00000152241007535456064920000002480517144254905517_);}
	.st1{fill:#FFFFFF;stroke:#000000;stroke-width:0.5;stroke-linecap:round;stroke-linejoin:round;stroke-miterlimit:3.8637;}
	
		.st2{fill-rule:evenodd;clip-rule:evenodd;fill:none;stroke:#000000;stroke-width:0.25;stroke-linecap:round;stroke-linejoin:round;stroke-miterlimit:3.8637;}
	.st3{clip-path:url(#XMLID_00000152241007535456064920000002480517144254905517_);fill:#C7C8CA;}
	.st4{fill:none;stroke:#000000;stroke-width:0.5;}
	.st5{stroke:#000000;stroke-width:0.5;}
	.st6{fill:none;stroke:#000000;stroke-width:0.5;stroke-linecap:round;stroke-linejoin:round;stroke-miterlimit:3.8637;}
	
		.st7{fill-rule:evenodd;clip-rule:evenodd;fill:#FFFFFF;stroke:#000000;stroke-width:0.5;stroke-linecap:round;stroke-linejoin:round;stroke-miterlimit:3.8637;}
	.st8{fill:#FFFFFF;stroke:#000000;stroke-width:0.2835;stroke-linecap:round;stroke-linejoin:round;stroke-miterlimit:3.8637;}
	.st9{fill:none;stroke:#000000;stroke-width:0.2835;stroke-linecap:round;stroke-linejoin:round;stroke-miterlimit:3.8637;}
	.st10{fill:none;stroke:#000000;stroke-width:0.25;stroke-linecap:round;stroke-linejoin:round;stroke-miterlimit:3.8637;}
	.st11{clip-path:url(#XMLID_00000075160157224352910070000000646775451376435341_);}
	.st12{fill:#231F20;}
	.st13{font-family:'Arial-BoldMT';}
	.st14{font-size:1.38px;}
	.st15{font-size:1.583px;}
	.st16{fill:#FFFFFF;stroke:#000000;stroke-width:0.25;stroke-linecap:round;stroke-linejoin:round;stroke-miterlimit:3.8637;}
</style>
<g>
	<defs>
		<rect id="XMLID_00000178884979106437928840000004750504091732827800_" x="629.86" y="6.39" width="43.92" height="43.92"/>
	</defs>
	<clipPath id="XMLID_00000160888041755557188120000011398938514118436763_">
		<use xlink:href="#XMLID_00000178884979106437928840000004750504091732827800_"  style="overflow:visible;"/>
	</clipPath>
	<g style="clip-path:url(#XMLID_00000160888041755557188120000011398938514118436763_);">
		<path class="st1" d="M686.43,19.11l-6.44-0.01c-2.77,0-3.34-1.07-5.19-1.07h-8.1c-1.99,0-3.41-0.31-3.41-0.31l0.01,10.78
			l-0.01,10.45c0,0,1.43-0.3,3.41-0.3h8.1c1.85,0,2.41-1.06,5.19-1.06l6.44,0V19.11z"/>
		<g>
			<polygon class="st1" points="659.63,19.38 661.44,19.38 661.44,17.83 663.3,17.83 663.3,38.85 661.44,38.85 661.44,37.29 
				659.63,37.29 659.63,35.5 657.67,35.5 657.67,21.17 659.63,21.17 			"/>
			<line class="st2" x1="661.46" y1="19.38" x2="661.46" y2="37.33"/>
			<line class="st2" x1="659.62" y1="35.52" x2="659.62" y2="21.19"/>
		</g>
		<g>
			<path class="st1" d="M658.54,40.27h-9.35c0,0-0.66-1.57-0.59-2.15c0-0.06,0-19.47,0-19.49c-0.07-0.63,0.59-2.22,0.59-2.22h9.35
				c0,0,0.65,1.59,0.58,2.22c0,0.01,0,19.42,0,19.49C659.19,38.7,658.54,40.27,658.54,40.27z"/>
			<path class="st2" d="M659.13,19.5c0,1.21-0.28,2.29-0.59,3.08c0.78,3.77,0.76,8.49,0,11.62c0.3,0.78,0.58,1.82,0.59,2.99"/>
			<line class="st2" x1="658.54" y1="34.2" x2="649.17" y2="34.2"/>
			<line class="st2" x1="658.54" y1="22.59" x2="649.17" y2="22.59"/>
			<path class="st2" d="M648.6,19.5c0,1.21,0.28,2.29,0.59,3.08c-0.78,3.77-0.76,8.49,0,11.62c-0.3,0.78-0.58,1.82-0.59,2.99"/>
		</g>
		<path class="st2" d="M680.26,21.15c-2.31,0.75-4.03,3.68-4.03,7.2c0,3.52,1.72,6.45,4.03,7.2V21.15z"/>
	</g>
	<polygon style="clip-path:url(#XMLID_00000160888041755557188120000011398938514118436763_);fill:#C7C8CA;" points="638.65,33.98 
		638.65,31.79 628.23,31.79 628.23,24.91 638.65,24.9 638.65,22.71 646.33,28.35 	"/>
	
		<use xlink:href="#XMLID_00000178884979106437928840000004750504091732827800_"  style="overflow:visible;fill:none;stroke:#231F20;stroke-width:0.5;"/>
</g>
<rect id="XMLID_00000121236903563490406040000011223612805584079800_" x="6.39" y="6.39" class="st4" width="43.92" height="43.92"/>
<rect id="XMLID_00000150790232562972853170000014809520407384292277_" x="6.39" y="6.39" class="st5" width="43.92" height="39.83"/>
<line class="st6" x1="6.39" y1="46.22" x2="50.31" y2="46.22"/>
<g>
	<path class="st7" d="M36.47-54.23v-1.43h3.17v-5.58h-2.13v-3.95c0,0,0.49,0,2.62,0c0-8.62-1.72-13.88-3.26-14.47
		c-1.53-0.59-5.41-0.45-5.41-0.45h-5.44c0,0-3.87-0.14-5.41,0.45c-1.53,0.59-3.26,5.85-3.26,14.47c2.13,0,2.62,0,2.62,0v3.95h-2.13
		v5.58h3.17v1.43H36.47z"/>
	<line class="st6" x1="20" y1="-65.19" x2="37.52" y2="-65.19"/>
	<line class="st8" x1="20" y1="-61.24" x2="37.52" y2="-61.24"/>
	<line class="st9" x1="21.05" y1="-55.66" x2="36.56" y2="-55.66"/>
	<path class="st10" d="M21.56-79.51c0,0-2.52,2.69-2.52,14.12"/>
	<path class="st10" d="M25.61-79.88c0,0-0.2,9.42-0.2,14.49"/>
	<path class="st10" d="M35.06-79.51c0,0,2.52,2.69,2.52,14.12"/>
	<path class="st10" d="M31.01-79.88c0,0,0.2,9.42,0.2,14.49"/>
	<line class="st10" x1="18.4" y1="-61.24" x2="18.4" y2="-55.66"/>
	<line class="st10" x1="22.52" y1="-61.24" x2="22.52" y2="-55.66"/>
	<line class="st10" x1="24.18" y1="-61.24" x2="24.18" y2="-55.66"/>
	<line class="st10" x1="28.84" y1="-61.24" x2="28.84" y2="-55.66"/>
	<line class="st10" x1="30.95" y1="-61.24" x2="30.95" y2="-55.66"/>
	<line class="st10" x1="35.5" y1="-61.24" x2="35.5" y2="-55.66"/>
</g>
<g>
	<defs>
		<rect id="XMLID_00000146471180865481487100000000821133935355313793_" x="106.61" y="6.83" width="43.48" height="43.48"/>
	</defs>
	<clipPath id="XMLID_00000177455314166249995110000001729043411159708083_">
		<use xlink:href="#XMLID_00000146471180865481487100000000821133935355313793_"  style="overflow:visible;"/>
	</clipPath>
	<g style="clip-path:url(#XMLID_00000177455314166249995110000001729043411159708083_);">
		<defs>
			<rect id="SVGID_1_" x="98.31" y="7.93" width="59.55" height="72.16"/>
		</defs>
		<clipPath id="SVGID_00000106844833593396912060000018255223794760494995_">
			<use xlink:href="#SVGID_1_"  style="overflow:visible;"/>
		</clipPath>
	</g>
	
		<use xlink:href="#XMLID_00000146471180865481487100000000821133935355313793_"  style="overflow:visible;fill:none;stroke:#231F20;stroke-width:0.5;"/>
</g>
<line class="st1" x1="106.61" y1="46.26" x2="150.09" y2="46.26"/>
<g>
	<g>
		<path class="st1" d="M38.29,46.1c0-13.61-3.3-17.63-3.3-17.63H21.77c-0.36,0-0.68,0.18-0.86,0.49c-0.83,1.42-2.98,6.16-2.98,17.15
			H38.29z"/>
		<polyline class="st10" points="21.25,29.09 21.25,33.84 20.34,34.37 20.34,38.69 19.42,39.25 19.28,45.85 		"/>
		<polyline class="st10" points="22.57,29.09 22.57,33.84 21.91,34.37 21.91,38.69 21.25,39.25 21.14,45.85 		"/>
		<polyline class="st10" points="22.95,29.09 22.95,33.84 22.45,34.37 22.45,38.69 21.93,39.25 21.85,45.85 		"/>
		<line class="st1" x1="25.42" y1="29.09" x2="25.42" y2="46.1"/>
		<line class="st10" x1="21.25" y1="33.84" x2="22.5" y2="33.84"/>
		<line class="st10" x1="20.34" y1="34.37" x2="21.91" y2="34.37"/>
		<line class="st10" x1="22.95" y1="33.84" x2="25.42" y2="33.84"/>
		<line class="st10" x1="22.45" y1="34.37" x2="25.42" y2="34.37"/>
		<polyline class="st10" points="34.76,29.09 34.76,33.84 35.66,34.37 35.66,38.69 36.59,39.25 36.73,45.85 		"/>
		<polyline class="st10" points="33.44,29.09 33.44,33.84 34.09,34.37 34.09,38.69 34.76,39.25 34.87,45.85 		"/>
		<polyline class="st10" points="33.06,29.09 33.06,33.84 33.56,34.37 33.56,38.69 34.07,39.25 34.16,45.85 		"/>
		<line class="st1" x1="30.59" y1="29.09" x2="30.59" y2="46.1"/>
		<line class="st10" x1="34.76" y1="33.84" x2="33.51" y2="33.84"/>
		<line class="st10" x1="35.66" y1="34.37" x2="34.09" y2="34.37"/>
		<line class="st10" x1="33.06" y1="33.84" x2="30.59" y2="33.84"/>
		<line class="st10" x1="33.56" y1="34.37" x2="30.59" y2="34.37"/>
		<line class="st10" x1="20.34" y1="38.69" x2="21.91" y2="38.69"/>
		<line class="st10" x1="19.42" y1="39.25" x2="21.25" y2="39.25"/>
		<line class="st10" x1="22.45" y1="38.69" x2="25.42" y2="38.69"/>
		<line class="st10" x1="21.93" y1="39.25" x2="25.42" y2="39.25"/>
		<line class="st10" x1="35.66" y1="38.69" x2="34.09" y2="38.69"/>
		<line class="st10" x1="36.59" y1="39.25" x2="34.76" y2="39.25"/>
		<line class="st10" x1="33.56" y1="38.69" x2="30.59" y2="38.69"/>
		<line class="st10" x1="34.07" y1="39.25" x2="30.59" y2="39.25"/>
	</g>
	<g>
		<path class="st1" d="M32.05,28.47c0,0,0-16.71,0-18.37c0-0.43-0.39-0.76-0.83-0.76h-6.23c-0.43,0-0.83,0.32-0.83,0.76
			c0,1.65,0,18.37,0,18.37H32.05z"/>
		<g>
			<polyline class="st10" points="28.68,13.57 26.74,13.57 26.74,26.94 28.6,26.94 			"/>
			<line class="st10" x1="26.74" y1="24.47" x2="28.68" y2="24.47"/>
			<line class="st10" x1="26.74" y1="21.72" x2="28.68" y2="21.72"/>
			<line class="st10" x1="26.74" y1="18.23" x2="28.68" y2="18.23"/>
			<line class="st10" x1="26.74" y1="15.22" x2="28.68" y2="15.22"/>
			<line class="st10" x1="26.74" y1="16.65" x2="27.71" y2="16.65"/>
			<line class="st10" x1="26.74" y1="19.98" x2="27.71" y2="19.98"/>
			<line class="st10" x1="26.74" y1="23.11" x2="27.71" y2="23.11"/>
			<line class="st10" x1="26.74" y1="25.7" x2="27.71" y2="25.7"/>
			<text transform="matrix(0 -1 1 0 26.1744 25.7937)" class="st12 st13 st14">l/min</text>
			<text transform="matrix(1 0 0 1 29.1451 14.2478)" class="st12 st13 st15">0</text>
			<text transform="matrix(1 0 0 1 29.1451 15.8982)" class="st12 st13 st15">1</text>
			<text transform="matrix(1 0 0 1 29.1451 18.743)" class="st12 st13 st15">2</text>
			<text transform="matrix(1 0 0 1 29.1451 22.3182)" class="st12 st13 st15">3</text>
			<text transform="matrix(1 0 0 1 29.1451 25.0379)" class="st12 st13 st15">4</text>
			<text transform="matrix(1 0 0 1 29.1451 27.5447)" class="st12 st13 st15">5</text>
		</g>
	</g>
	<path class="st16" d="M22.97,14.27c0,0,0.61,0,0.77,0c0.81,0,0.9-1.02,2.16-1.02h4.41c1.26,0,1.35,1.02,2.16,1.02
		c0.16,0,0.77,0,0.77,0v-3.19c0,0-0.61,0-0.77,0c-0.81,0-0.9,1.02-2.16,1.02H25.9c-1.26,0-1.35-1.02-2.16-1.02
		c-0.16,0-0.77,0-0.77,0V14.27z"/>
</g>
</svg>
