<?xml version="1.0" encoding="utf-8"?>
<!-- Generator: Adobe Illustrator 24.2.1, SVG Export Plug-In . SVG Version: 6.00 Build 0)  -->
<svg version="1.1" id="Ebene_1" xmlns="http://www.w3.org/2000/svg" xmlns:xlink="http://www.w3.org/1999/xlink" x="0px" y="0px"
	 viewBox="0 0 57.71 57.71" style="enable-background:new 0 0 57.71 57.71;" xml:space="preserve">
<style type="text/css">
	.st0{fill-rule:evenodd;clip-rule:evenodd;}
	.st1{fill:#FFFFFF;}
</style>
<g>
	<rect x="0.51" y="0.51" class="st0" width="56.69" height="56.69"/>
	<g>
		<path class="st1" d="M24.89,23.93c0-1.39,1.13-2.53,2.53-2.53h2.88c1.39,0,2.53,1.14,2.53,2.53v22.01c0,1.39-1.14,2.53-2.53,2.53
			h-2.88c-1.39,0-2.53-1.14-2.53-2.53V23.93"/>
		<path class="st1" d="M24.89,11.77c0-1.39,1.13-2.52,2.53-2.52h2.88c1.39,0,2.53,1.13,2.53,2.52v2.88c0,1.39-1.14,2.53-2.53,2.53
			h-2.88c-1.39,0-2.53-1.13-2.53-2.53V11.77"/>
	</g>
</g>
</svg>
