<?xml version="1.0" encoding="utf-8"?>
<!-- Generator: Adobe Illustrator 26.0.1, SVG Export Plug-In . SVG Version: 6.00 Build 0)  -->
<svg version="1.1" id="Ebene_1" xmlns="http://www.w3.org/2000/svg" xmlns:xlink="http://www.w3.org/1999/xlink" x="0px" y="0px"
	 viewBox="0 0 57.71 57.71" style="enable-background:new 0 0 57.71 57.71;" xml:space="preserve">
<style type="text/css">
	.st0{fill-rule:evenodd;clip-rule:evenodd;}
	.st1{fill-rule:evenodd;clip-rule:evenodd;fill:#FFFFFF;}
</style>
<rect x="0.67" y="0.35" class="st0" width="56.7" height="56.69"/>
<path class="st0" d="M14.85,21.97c-0.62,0-1.08-0.69-0.78-1.19l0.78-1.24l0.76,1.24C15.91,21.28,15.45,21.97,14.85,21.97z"/>
<path class="st1" d="M27.59,52.97l-2.91-0.2l-0.59-3.2l-1.55-0.56l-2.34,2.18l-2.41-1.62l1.09-3.07l-1.09-1.22l-3.14,0.66
	l-1.32-2.61l2.48-2.11l-0.3-1.62l-3.07-0.99l0.2-2.94l3.2-0.56l0.53-1.55l-2.21-2.38l1.62-2.41l3.07,1.06l1.25-1.09L19.4,25.6
	l2.54-1.29l2.11,2.44l1.62-0.3l0.99-3.1l2.94,0.2l0.56,3.2l1.58,0.5l2.41-2.15l2.28,1.55l-1.09,3l1.25,1.35l3.17-0.66l1.29,2.61
	l-2.48,2.08l0.33,1.65l3.07,0.99l-0.2,2.91l-3.2,0.59l-0.53,1.62l2.11,2.41l-1.58,2.41l-3.07-1.09l-1.25,1.06l0.66,3.17l-2.61,1.29
	l-2.11-2.48l-1.62,0.3L27.59,52.97z M31.95,31.01c-3.93-2.64-9.31-1.58-11.89,2.34c-2.64,3.93-1.58,9.31,2.28,11.95
	c3.93,2.64,9.31,1.58,11.99-2.31C36.97,39.04,35.91,33.69,31.95,31.01z"/>
<path class="st1" d="M45.12,14.41l2.28-2.15l1.91,1.29l-1.02,3.07l1.16,1.65l3.14,0.13l0.43,2.25l-2.87,1.39l-0.43,2.01l2.11,2.38
	l-1.29,1.88l-3.07-0.99l-1.68,0.99l-0.17,3.2l-2.21,0.43l-1.49-2.91l-1.88-0.46l-2.34,2.15l-1.92-1.25l1.06-3.1l-1.02-1.68
	l-3.2-0.13l-0.43-2.25l2.91-1.42l0.4-1.82l-2.18-2.31l1.29-1.88l3.1,0.99l1.65-1.12l0.13-3.17l2.21-0.4l1.49,2.87L45.12,14.41z
	 M45.02,17.94c-1.98-1.32-4.69-0.76-6.04,1.19c-1.32,2.01-0.79,4.66,1.19,5.98c1.98,1.35,4.72,0.83,6.04-1.16
	C47.56,21.93,47.04,19.29,45.02,17.94z"/>
<path class="st1" d="M17.93,9.89l2.44-2.3l2.05,1.38l-1.1,3.29l1.24,1.77l3.36,0.14l0.46,2.41l-3.08,1.49l-0.46,2.16l2.27,2.55
	l-1.38,2.02l-3.29-1.06l-1.81,1.06l-0.18,3.43l-2.37,0.46l-1.59-3.12l-2.02-0.5l-2.51,2.3l-2.05-1.35l1.13-3.33l-1.1-1.81
	l-3.43-0.14l-0.46-2.41l3.12-1.52l0.43-1.95L5.26,12.4l1.38-2.02l3.33,1.06l1.77-1.2l0.14-3.4l2.37-0.43l1.59,3.08L17.93,9.89z
	 M17.83,13.68c-2.12-1.42-5.03-0.81-6.48,1.27c-1.42,2.16-0.85,4.99,1.27,6.41c2.12,1.45,5.06,0.89,6.48-1.24
	C20.55,17.96,19.99,15.13,17.83,13.68z"/>
</svg>
