<?xml version="1.0" encoding="utf-8"?>
<!-- Generator: Adobe Illustrator 26.0.1, SVG Export Plug-In . SVG Version: 6.00 Build 0)  -->
<svg version="1.1" id="Layer_1" xmlns="http://www.w3.org/2000/svg" xmlns:xlink="http://www.w3.org/1999/xlink" x="0px" y="0px"
	 viewBox="0 0 56.69 56.69" style="enable-background:new 0 0 56.69 56.69;" xml:space="preserve">
<style type="text/css">
	
		.st0{fill-rule:evenodd;clip-rule:evenodd;fill:none;stroke:#FFFFFF;stroke-width:1.0936;stroke-linecap:round;stroke-linejoin:round;stroke-miterlimit:3.8637;}
	
		.st1{fill-rule:evenodd;clip-rule:evenodd;fill:#FFFFFF;stroke:#FFFFFF;stroke-width:0.5468;stroke-linecap:round;stroke-linejoin:round;stroke-miterlimit:3.8637;}
	.st2{fill-rule:evenodd;clip-rule:evenodd;fill:#FFFFFF;}
</style>
<rect id="XMLID_00000121236903563490406040000011223612805584079800_" x="6.39" y="6.39" width="43.92" height="43.92"/>
<g>
	<circle class="st0" cx="28.35" cy="25.46" r="12.85"/>
	<rect x="26.35" y="38.23" class="st0" width="3.99" height="2.37"/>
	<rect x="24.75" y="40.6" class="st0" width="7.2" height="3.48"/>
	<g>
		<line class="st0" x1="26.76" y1="40.6" x2="26.76" y2="44.08"/>
		<line class="st0" x1="29.93" y1="40.6" x2="29.93" y2="44.08"/>
	</g>
	<path class="st0" d="M25.96,25.46c0-1.32,1.07-2.39,2.38-2.39s2.39,1.07,2.39,2.39c0,1.32-1.07,2.39-2.39,2.39
		S25.96,26.78,25.96,25.46z"/>
	<polygon class="st1" points="29.14,30.14 28.23,16.46 27.55,30.14 	"/>
	<g>
		<path class="st2" d="M25.47,32.67c0-0.32,0.06-0.78,0.48-0.78c0.48,0,0.48,0.63,0.48,0.97c0,0.33,0,0.96-0.49,0.96
			c-0.16,0-0.29-0.08-0.37-0.21c-0.09-0.15-0.1-0.34-0.1-0.51V32.67z M24.58,34.37h0.48c0.05-0.16,0.09-0.33,0.2-0.47
			c0.22,0.36,0.43,0.52,0.86,0.52c0.91,0,1.23-0.78,1.23-1.57c0-0.71-0.26-1.57-1.12-1.57c-0.34,0-0.59,0.14-0.74,0.44h-0.02v-1.44
			h-0.88V34.37z"/>
		<path class="st2" d="M30.5,34.37c-0.05-0.15-0.06-0.3-0.06-0.45v-1.41c0-0.36,0.03-0.7-0.28-0.95c-0.24-0.2-0.65-0.27-0.96-0.27
			c-0.64,0-1.35,0.21-1.44,0.95l0.83,0.08c0-0.3,0.24-0.44,0.52-0.44c0.13,0,0.28,0.04,0.36,0.14c0.09,0.11,0.08,0.27,0.08,0.4v0.07
			c-0.37,0.04-0.85,0.06-1.2,0.19c-0.4,0.15-0.68,0.45-0.68,0.9c0,0.57,0.42,0.86,0.96,0.86c0.45,0,0.71-0.17,0.97-0.53
			c-0.01,0.16,0.01,0.32,0.04,0.47H30.5z M29.55,33.04c0,0.21,0.01,0.39-0.12,0.58c-0.1,0.16-0.26,0.25-0.44,0.25
			c-0.24,0-0.39-0.16-0.39-0.4c0-0.44,0.61-0.52,0.95-0.55V33.04z"/>
		<path class="st2" d="M31.09,31.34v3.03h0.88v-1.16c0-0.54,0.08-1.08,0.75-1.04V31.3l-0.15-0.01c-0.38-0.03-0.56,0.3-0.65,0.63
			H31.9v-0.57H31.09z"/>
	</g>
	<line class="st0" x1="23.72" y1="18.05" x2="24.64" y2="19.54"/>
	<line class="st0" x1="20.5" y1="21.63" x2="22.07" y2="22.4"/>
	<line class="st0" x1="19.66" y1="26.37" x2="21.4" y2="26.19"/>
	<line class="st0" x1="21.46" y1="30.84" x2="22.84" y2="29.76"/>
	<line class="st0" x1="32.98" y1="18.05" x2="32.05" y2="19.54"/>
	<line class="st0" x1="36.2" y1="21.63" x2="34.63" y2="22.4"/>
	<line class="st0" x1="37.04" y1="26.37" x2="35.3" y2="26.19"/>
	<line class="st0" x1="35.23" y1="30.84" x2="33.85" y2="29.76"/>
	<path class="st0" d="M17.59,25.46c0-5.94,4.82-10.76,10.76-10.76s10.76,4.82,10.76,10.76c0,5.94-4.82,10.76-10.76,10.76
		S17.59,31.4,17.59,25.46z"/>
</g>
</svg>
