<?xml version="1.0" encoding="utf-8"?>
<!-- Generator: Adobe Illustrator 24.2.1, SVG Export Plug-In . SVG Version: 6.00 Build 0)  -->
<svg version="1.1" id="Ebene_1" xmlns="http://www.w3.org/2000/svg" xmlns:xlink="http://www.w3.org/1999/xlink" x="0px" y="0px"
	 viewBox="0 0 57.71 57.71" style="enable-background:new 0 0 57.71 57.71;" xml:space="preserve">
<style type="text/css">
	.st0{fill-rule:evenodd;clip-rule:evenodd;}
	.st1{fill-rule:evenodd;clip-rule:evenodd;fill:#FFFFFF;}
	.st2{fill:#FFFFFF;stroke:#000000;stroke-width:2;stroke-miterlimit:10;}
</style>
<g>
	<rect x="0.51" y="0.51" class="st0" width="56.69" height="56.69"/>
	<g>
		<g>
			<polygon class="st1" points="9.57,18.18 9.57,15.68 21.76,15.68 17.68,11.14 21.31,11.14 26.87,16.93 21.37,22.61 17.74,22.61 
				21.76,18.18 9.57,18.18 			"/>
			<polygon class="st1" points="48.15,15.56 48.15,18.06 35.95,18.06 40.03,22.61 36.4,22.61 30.84,16.81 36.34,11.14 39.97,11.14 
				35.95,15.56 48.15,15.56 			"/>
		</g>
		<g>
			<path class="st2" d="M28.8,46.08H8.18V27.51H28.8v4.38c0,0.56,0.22,1.06,0.61,1.39c0.4,0.33,0.92,0.47,1.47,0.37l2.57-0.44
				c0.52-0.09,1.01,0.03,1.38,0.35c0.37,0.31,0.57,0.77,0.57,1.3v4.49c0,0.53-0.2,0.99-0.57,1.31c-0.37,0.32-0.86,0.45-1.38,0.37
				l-2.56-0.39c-0.56-0.09-1.08,0.06-1.48,0.4c-0.4,0.34-0.62,0.84-0.62,1.4V46.08z"/>
			<path class="st2" d="M28.92,42.43c0-0.53,0.2-0.99,0.57-1.31c0.37-0.32,0.86-0.45,1.38-0.37l2.56,0.39
				c0.56,0.08,1.08-0.06,1.48-0.4c0.4-0.34,0.62-0.84,0.62-1.4v-4.49c0-0.56-0.22-1.05-0.61-1.39c-0.4-0.33-0.92-0.47-1.47-0.37
				l-2.57,0.44c-0.52,0.09-1.01-0.04-1.38-0.35c-0.37-0.31-0.57-0.77-0.57-1.3v-4.38h20.62v18.58H28.92V42.43z"/>
		</g>
	</g>
</g>
</svg>
