<?xml version="1.0" encoding="utf-8"?>
<!-- Generator: Adobe Illustrator 26.0.1, SVG Export Plug-In . SVG Version: 6.00 Build 0)  -->
<svg version="1.1" id="Layer_1" xmlns="http://www.w3.org/2000/svg" xmlns:xlink="http://www.w3.org/1999/xlink" x="0px" y="0px"
	 viewBox="0 0 56.69 56.69" style="enable-background:new 0 0 56.69 56.69;" xml:space="preserve">
<style type="text/css">
	
		.st0{clip-path:url(#XMLID_00000171684409866698261080000011501108492919700143_);stroke:#000000;stroke-width:0.5;stroke-linecap:round;stroke-linejoin:round;stroke-miterlimit:3.8637;}
	.st1{clip-path:url(#XMLID_00000171684409866698261080000011501108492919700143_);}
	.st2{stroke:#000000;stroke-width:0.5;stroke-linecap:round;stroke-linejoin:round;stroke-miterlimit:3.8637;}
	
		.st3{fill-rule:evenodd;clip-rule:evenodd;stroke:#000000;stroke-width:0.25;stroke-linecap:round;stroke-linejoin:round;stroke-miterlimit:3.8637;}
	
		.st4{clip-path:url(#XMLID_00000171684409866698261080000011501108492919700143_);fill-rule:evenodd;clip-rule:evenodd;stroke:#000000;stroke-width:0.25;stroke-linecap:round;stroke-linejoin:round;stroke-miterlimit:3.8637;}
	.st5{clip-path:url(#XMLID_00000062178853057097564530000017417196892090563004_);}
	.st6{fill:#FFFFFF;stroke:#000000;stroke-width:0.5;stroke-linecap:round;stroke-linejoin:round;stroke-miterlimit:3.8637;}
	
		.st7{fill-rule:evenodd;clip-rule:evenodd;fill:none;stroke:#000000;stroke-width:0.25;stroke-linecap:round;stroke-linejoin:round;stroke-miterlimit:3.8637;}
	.st8{clip-path:url(#XMLID_00000062178853057097564530000017417196892090563004_);fill:#C7C8CA;}
	.st9{clip-path:url(#XMLID_00000103236164973226614970000016433130406223699105_);}
	.st10{clip-path:url(#XMLID_00000103236164973226614970000016433130406223699105_);fill:#C7C8CA;}
</style>
<g>
	<defs>
		<rect id="XMLID_00000170246609000157770940000008047626525746658699_" x="6.39" y="6.39" width="43.92" height="43.92"/>
	</defs>
	<use xlink:href="#XMLID_00000170246609000157770940000008047626525746658699_"  style="overflow:visible;"/>
	<clipPath id="XMLID_00000029031921048342143390000002696572160622697121_">
		<use xlink:href="#XMLID_00000170246609000157770940000008047626525746658699_"  style="overflow:visible;"/>
	</clipPath>
	
		<path style="clip-path:url(#XMLID_00000029031921048342143390000002696572160622697121_);stroke:#000000;stroke-width:0.5;stroke-linecap:round;stroke-linejoin:round;stroke-miterlimit:3.8637;" d="
		M62.95,19.11l-6.44-0.01c-2.77,0-3.34-1.07-5.19-1.07h-8.1c-1.99,0-3.41-0.31-3.41-0.31l0.01,10.78l-0.01,10.45
		c0,0,1.43-0.3,3.41-0.3h8.1c1.85,0,2.41-1.06,5.19-1.06l6.44,0V19.11z"/>
	<g style="clip-path:url(#XMLID_00000029031921048342143390000002696572160622697121_);">
		<polygon class="st2" points="36.15,19.38 37.97,19.38 37.97,17.83 39.83,17.83 39.83,38.85 37.97,38.85 37.97,37.29 36.15,37.29 
			36.15,35.5 34.19,35.5 34.19,21.17 36.15,21.17 		"/>
		<line class="st3" x1="37.99" y1="19.38" x2="37.99" y2="37.33"/>
		<line class="st3" x1="36.14" y1="35.52" x2="36.14" y2="21.19"/>
	</g>
	<g style="clip-path:url(#XMLID_00000029031921048342143390000002696572160622697121_);">
		<path class="st2" d="M35.06,40.27h-9.35c0,0-0.66-1.57-0.59-2.15c0-0.06,0-19.47,0-19.49c-0.07-0.63,0.59-2.22,0.59-2.22h9.35
			c0,0,0.65,1.59,0.58,2.22c0,0.01,0,19.42,0,19.49C35.71,38.7,35.06,40.27,35.06,40.27z"/>
		<path class="st3" d="M35.65,19.5c0,1.21-0.28,2.29-0.59,3.08c0.78,3.77,0.76,8.49,0,11.62c0.3,0.78,0.58,1.82,0.59,2.99"/>
		<line class="st3" x1="35.06" y1="34.2" x2="25.69" y2="34.2"/>
		<line class="st3" x1="35.06" y1="22.59" x2="25.69" y2="22.59"/>
		<path class="st3" d="M25.12,19.5c0,1.21,0.28,2.29,0.59,3.08c-0.78,3.77-0.76,8.49,0,11.62c-0.3,0.78-0.58,1.82-0.59,2.99"/>
	</g>
	
		<path style="clip-path:url(#XMLID_00000029031921048342143390000002696572160622697121_);fill-rule:evenodd;clip-rule:evenodd;stroke:#000000;stroke-width:0.25;stroke-linecap:round;stroke-linejoin:round;stroke-miterlimit:3.8637;" d="
		M56.78,21.15c-2.31,0.75-4.03,3.68-4.03,7.2c0,3.52,1.72,6.45,4.03,7.2V21.15z"/>
	<polygon style="clip-path:url(#XMLID_00000029031921048342143390000002696572160622697121_);" points="15.17,33.98 15.17,31.79 
		4.76,31.79 4.76,24.91 15.17,24.9 15.17,22.71 22.85,28.35 	"/>
	
		<use xlink:href="#XMLID_00000170246609000157770940000008047626525746658699_"  style="overflow:visible;fill:none;stroke:#231F20;stroke-width:0.5;"/>
</g>
<g>
	<defs>
		<rect id="XMLID_00000090271157734596472350000012946744270419743128_" x="6.39" y="6.39" width="43.92" height="43.92"/>
	</defs>
	<clipPath id="XMLID_00000029751571942758617630000017381813571758548119_">
		<use xlink:href="#XMLID_00000090271157734596472350000012946744270419743128_"  style="overflow:visible;"/>
	</clipPath>
	<g style="clip-path:url(#XMLID_00000029751571942758617630000017381813571758548119_);">
		<path class="st6" d="M62.95,19.11l-6.44-0.01c-2.77,0-3.34-1.07-5.19-1.07h-8.1c-1.99,0-3.41-0.31-3.41-0.31l0.01,10.78
			l-0.01,10.45c0,0,1.43-0.3,3.41-0.3h8.1c1.85,0,2.41-1.06,5.19-1.06l6.44,0V19.11z"/>
		<g>
			<polygon class="st6" points="36.15,19.38 37.97,19.38 37.97,17.83 39.83,17.83 39.83,38.85 37.97,38.85 37.97,37.29 36.15,37.29 
				36.15,35.5 34.19,35.5 34.19,21.17 36.15,21.17 			"/>
			<line class="st7" x1="37.99" y1="19.38" x2="37.99" y2="37.33"/>
			<line class="st7" x1="36.14" y1="35.52" x2="36.14" y2="21.19"/>
		</g>
		<g>
			<path class="st6" d="M35.06,40.27h-9.35c0,0-0.66-1.57-0.59-2.15c0-0.06,0-19.47,0-19.49c-0.07-0.63,0.59-2.22,0.59-2.22h9.35
				c0,0,0.65,1.59,0.58,2.22c0,0.01,0,19.42,0,19.49C35.71,38.7,35.06,40.27,35.06,40.27z"/>
			<path class="st7" d="M35.65,19.5c0,1.21-0.28,2.29-0.59,3.08c0.78,3.77,0.76,8.49,0,11.62c0.3,0.78,0.58,1.82,0.59,2.99"/>
			<line class="st7" x1="35.06" y1="34.2" x2="25.69" y2="34.2"/>
			<line class="st7" x1="35.06" y1="22.59" x2="25.69" y2="22.59"/>
			<path class="st7" d="M25.12,19.5c0,1.21,0.28,2.29,0.59,3.08c-0.78,3.77-0.76,8.49,0,11.62c-0.3,0.78-0.58,1.82-0.59,2.99"/>
		</g>
		<path class="st7" d="M56.78,21.15c-2.31,0.75-4.03,3.68-4.03,7.2c0,3.52,1.72,6.45,4.03,7.2V21.15z"/>
	</g>
	<polygon style="clip-path:url(#XMLID_00000029751571942758617630000017381813571758548119_);fill:#C7C8CA;" points="15.17,33.98 
		15.17,31.79 4.76,31.79 4.76,24.91 15.17,24.9 15.17,22.71 22.85,28.35 	"/>
	
		<use xlink:href="#XMLID_00000090271157734596472350000012946744270419743128_"  style="overflow:visible;fill:none;stroke:#231F20;stroke-width:0.5;"/>
</g>
<g>
	<defs>
		<rect id="XMLID_00000178884979106437928840000004750504091732827800_" x="629.86" y="6.39" width="43.92" height="43.92"/>
	</defs>
	<clipPath id="XMLID_00000067238534128632158640000017088312847889726629_">
		<use xlink:href="#XMLID_00000178884979106437928840000004750504091732827800_"  style="overflow:visible;"/>
	</clipPath>
	<g style="clip-path:url(#XMLID_00000067238534128632158640000017088312847889726629_);">
		<path class="st6" d="M686.43,19.11l-6.44-0.01c-2.77,0-3.34-1.07-5.19-1.07h-8.1c-1.99,0-3.41-0.31-3.41-0.31l0.01,10.78
			l-0.01,10.45c0,0,1.43-0.3,3.41-0.3h8.1c1.85,0,2.41-1.06,5.19-1.06l6.44,0V19.11z"/>
		<g>
			<polygon class="st6" points="659.63,19.38 661.44,19.38 661.44,17.83 663.3,17.83 663.3,38.85 661.44,38.85 661.44,37.29 
				659.63,37.29 659.63,35.5 657.67,35.5 657.67,21.17 659.63,21.17 			"/>
			<line class="st7" x1="661.46" y1="19.38" x2="661.46" y2="37.33"/>
			<line class="st7" x1="659.62" y1="35.52" x2="659.62" y2="21.19"/>
		</g>
		<g>
			<path class="st6" d="M658.54,40.27h-9.35c0,0-0.66-1.57-0.59-2.15c0-0.06,0-19.47,0-19.49c-0.07-0.63,0.59-2.22,0.59-2.22h9.35
				c0,0,0.65,1.59,0.58,2.22c0,0.01,0,19.42,0,19.49C659.19,38.7,658.54,40.27,658.54,40.27z"/>
			<path class="st7" d="M659.13,19.5c0,1.21-0.28,2.29-0.59,3.08c0.78,3.77,0.76,8.49,0,11.62c0.3,0.78,0.58,1.82,0.59,2.99"/>
			<line class="st7" x1="658.54" y1="34.2" x2="649.17" y2="34.2"/>
			<line class="st7" x1="658.54" y1="22.59" x2="649.17" y2="22.59"/>
			<path class="st7" d="M648.6,19.5c0,1.21,0.28,2.29,0.59,3.08c-0.78,3.77-0.76,8.49,0,11.62c-0.3,0.78-0.58,1.82-0.59,2.99"/>
		</g>
		<path class="st7" d="M680.26,21.15c-2.31,0.75-4.03,3.68-4.03,7.2c0,3.52,1.72,6.45,4.03,7.2V21.15z"/>
	</g>
	<polygon style="clip-path:url(#XMLID_00000067238534128632158640000017088312847889726629_);fill:#C7C8CA;" points="638.65,33.98 
		638.65,31.79 628.23,31.79 628.23,24.91 638.65,24.9 638.65,22.71 646.33,28.35 	"/>
	
		<use xlink:href="#XMLID_00000178884979106437928840000004750504091732827800_"  style="overflow:visible;fill:none;stroke:#231F20;stroke-width:0.5;"/>
</g>
</svg>
