<?xml version="1.0" encoding="utf-8"?>
<!-- Generator: Adobe Illustrator 26.0.1, SVG Export Plug-In . SVG Version: 6.00 Build 0)  -->
<svg version="1.1" id="Layer_1" xmlns="http://www.w3.org/2000/svg" xmlns:xlink="http://www.w3.org/1999/xlink" x="0px" y="0px"
	 viewBox="0 0 56.69 56.69" style="enable-background:new 0 0 56.69 56.69;" xml:space="preserve">
<style type="text/css">
	
		.st0{fill-rule:evenodd;clip-rule:evenodd;fill:none;stroke:#FFFFFF;stroke-width:1.0936;stroke-linecap:round;stroke-linejoin:round;stroke-miterlimit:3.8637;}
	
		.st1{fill-rule:evenodd;clip-rule:evenodd;fill:#FFFFFF;stroke:#FFFFFF;stroke-width:0.5468;stroke-linecap:round;stroke-linejoin:round;stroke-miterlimit:3.8637;}
	.st2{fill-rule:evenodd;clip-rule:evenodd;fill:#FFFFFF;}
	.st3{fill:none;stroke:#FFFFFF;stroke-width:1.0936;stroke-linecap:round;stroke-linejoin:round;}
	.st4{fill:#FFFFFF;stroke:#FFFFFF;stroke-miterlimit:10;}
	
		.st5{clip-path:url(#SVGID_00000151526188849281516380000013426100479451028879_);fill-rule:evenodd;clip-rule:evenodd;fill:#FFFFFF;}
	.st6{fill-rule:evenodd;clip-rule:evenodd;fill:none;stroke:#FFFFFF;stroke-width:1.0936;stroke-miterlimit:3.8637;}
</style>
<rect id="XMLID_00000121236903563490406040000011223612805584079800_" x="6.39" y="6.39" width="43.92" height="43.92"/>
<g>
	<circle class="st0" cx="130.28" cy="25.46" r="12.85"/>
	<rect x="128.29" y="38.23" class="st0" width="3.99" height="2.37"/>
	<rect x="126.68" y="40.6" class="st0" width="7.2" height="3.48"/>
	<g>
		<line class="st0" x1="128.7" y1="40.6" x2="128.7" y2="44.08"/>
		<line class="st0" x1="131.86" y1="40.6" x2="131.86" y2="44.08"/>
	</g>
	<path class="st0" d="M127.9,25.46c0-1.32,1.07-2.39,2.38-2.39c1.32,0,2.39,1.07,2.39,2.39c0,1.32-1.07,2.39-2.39,2.39
		C128.96,27.85,127.9,26.78,127.9,25.46z"/>
	<polygon class="st1" points="127.38,29.24 136.78,19.26 126.3,28.07 	"/>
	<g>
		<path class="st2" d="M127.4,32.67c0-0.32,0.06-0.78,0.48-0.78c0.48,0,0.48,0.63,0.48,0.97c0,0.33,0,0.96-0.49,0.96
			c-0.16,0-0.29-0.08-0.37-0.21c-0.09-0.15-0.1-0.34-0.1-0.51V32.67z M126.51,34.37h0.48c0.05-0.16,0.09-0.33,0.2-0.47
			c0.22,0.36,0.43,0.52,0.86,0.52c0.91,0,1.23-0.78,1.23-1.57c0-0.71-0.26-1.57-1.12-1.57c-0.34,0-0.59,0.14-0.74,0.44h-0.02v-1.44
			h-0.88V34.37z"/>
		<path class="st2" d="M132.43,34.37c-0.05-0.15-0.06-0.3-0.06-0.45v-1.41c0-0.36,0.03-0.7-0.28-0.95c-0.24-0.2-0.65-0.27-0.96-0.27
			c-0.64,0-1.35,0.21-1.44,0.95l0.83,0.08c0-0.3,0.24-0.44,0.52-0.44c0.13,0,0.28,0.04,0.36,0.14c0.09,0.11,0.08,0.27,0.08,0.4v0.07
			c-0.37,0.04-0.85,0.06-1.2,0.19c-0.4,0.15-0.68,0.45-0.68,0.9c0,0.57,0.42,0.86,0.96,0.86c0.45,0,0.71-0.17,0.97-0.53
			c-0.01,0.16,0.01,0.32,0.04,0.47H132.43z M131.48,33.04c0,0.21,0.01,0.39-0.12,0.58c-0.1,0.16-0.26,0.25-0.44,0.25
			c-0.24,0-0.39-0.16-0.39-0.4c0-0.44,0.61-0.52,0.95-0.55V33.04z"/>
		<path class="st2" d="M133.02,31.34v3.03h0.88v-1.16c0-0.54,0.08-1.08,0.75-1.04V31.3l-0.15-0.01c-0.38-0.03-0.56,0.3-0.65,0.63
			h-0.01v-0.57H133.02z"/>
	</g>
	<line class="st0" x1="125.65" y1="18.05" x2="126.58" y2="19.54"/>
	<line class="st0" x1="130.21" y1="16.76" x2="130.22" y2="18.51"/>
	<line class="st0" x1="122.43" y1="21.63" x2="124" y2="22.4"/>
	<line class="st0" x1="121.59" y1="26.37" x2="123.33" y2="26.19"/>
	<line class="st0" x1="123.4" y1="30.84" x2="124.77" y2="29.76"/>
	<line class="st0" x1="134.91" y1="18.05" x2="133.98" y2="19.54"/>
	<line class="st0" x1="138.13" y1="21.63" x2="136.56" y2="22.4"/>
	<line class="st0" x1="138.97" y1="26.37" x2="137.23" y2="26.19"/>
	<line class="st0" x1="137.16" y1="30.84" x2="135.79" y2="29.76"/>
	<path class="st0" d="M119.52,25.46c0-5.94,4.82-10.76,10.76-10.76c5.94,0,10.76,4.82,10.76,10.76c0,5.94-4.82,10.76-10.76,10.76
		C124.34,36.22,119.52,31.4,119.52,25.46z"/>
	<path class="st3" d="M116.08,34.04c-1.44-2.41-2.26-5.22-2.26-8.22c0-3.99,1.46-7.64,3.86-10.45"/>
	<g>
		<polygon class="st4" points="117.04,31.68 115.74,33.46 113.56,33.76 117.76,36.84 		"/>
	</g>
</g>
<g>
	<g>
		<defs>
			<path id="SVGID_1_" d="M22.79,37.58c0-1.8,1.03-3.37,2.53-4.14V16.64c0-1.21,0.92-2.19,2.13-2.19c1.21,0,2.14,0.98,2.14,2.19
				v16.79c1.5,0.77,2.52,2.34,2.52,4.14c0,2.57-2.09,4.66-4.66,4.66S22.79,40.15,22.79,37.58z"/>
		</defs>
		<use xlink:href="#SVGID_1_"  style="overflow:visible;"/>
		<clipPath id="SVGID_00000178178606577904134390000007378200904095971499_">
			<use xlink:href="#SVGID_1_"  style="overflow:visible;"/>
		</clipPath>
		
			<rect x="21.67" y="26.21" style="clip-path:url(#SVGID_00000178178606577904134390000007378200904095971499_);fill-rule:evenodd;clip-rule:evenodd;fill:#FFFFFF;" width="12.57" height="23.77"/>
		<use xlink:href="#SVGID_1_"  style="overflow:visible;fill:none;stroke:#FFFFFF;stroke-width:1.0936;stroke-miterlimit:3.8637;"/>
	</g>
	<line class="st6" x1="31.55" y1="29.72" x2="33.91" y2="29.72"/>
	<line class="st6" x1="31.55" y1="25.86" x2="33.91" y2="25.86"/>
	<line class="st6" x1="31.55" y1="22.01" x2="33.91" y2="22.01"/>
</g>
</svg>
